<svg xmlns="http://www.w3.org/2000/svg" fill="none" viewBox="0 0 250 250" id="Cross--Streamline-Retro.svg" height="250" width="250"><desc>Cross Streamline Element: https://streamlinehq.com</desc><path fill="#ffffff" d="M66.02604166666666 8.947395833333333H147.32708333333332L183.97395833333331 45.35572916666666V66.02604166666666H204.6442708333333L241.05260416666664 102.434375V183.97395833333331H183.97395833333331V241.05260416666664H102.434375L66.02604166666666 204.6442708333333V183.97395833333331H45.35572916666666L8.947395833333333 147.33385416666667V66.03229166666667H66.02604166666666V8.947395833333333Z" stroke-width="2"></path><path fill="#89dcff" d="M204.6442708333333 66.01927083333334L241.05260416666664 102.42135416666666V183.62604166666665L204.31562499999998 147.63020833333331L204.6442708333333 66.01927083333334Z" stroke-width="2"></path><path fill="#f11f9d" d="M204.31562499999998 147.64322916666666L241.05260416666664 183.63229166666665H183.63229166666665L165.63802083333331 165.63802083333331L147.64322916666666 147.64322916666666H204.31562499999998Z" stroke-width="2"></path><path fill="#89dcff" d="M147.64322916666666 147.64322916666666L183.63229166666665 183.63229166666665V241.05260416666664L147.64322916666666 204.31562499999998V147.64322916666666Z" stroke-width="2"></path><path fill="#f11f9d" d="M102.434375 241.04635416666667L66.03229166666667 204.63802083333334L147.64322916666666 204.30885416666666L183.63906249999997 241.04635416666667H102.434375Z" stroke-width="2"></path><path fill="#94e986" d="M147.33385416666667 8.947395833333333H65.92916666666666V65.92916666666666H8.947395833333333V147.33385416666667H65.92916666666666V204.31562499999998H147.33385416666667V147.33385416666667H204.31562499999998V65.92916666666666H147.33385416666667V8.947395833333333Z" stroke-width="2"></path><path fill="#f11f9d" d="M65.92916666666666 183.98072916666666H45.35572916666666L8.947395833333333 147.34010416666666H65.92916666666666V183.98072916666666Z" stroke-width="2"></path><path fill="#89dcff" d="M183.97395833333331 45.35572916666666V65.92916666666666H147.33385416666667V8.947395833333333L183.97395833333331 45.35572916666666Z" stroke-width="2"></path><path stroke="#000000" stroke-linecap="round" stroke-linejoin="round" d="M66.02604166666666 8.947395833333333H147.32708333333332L183.97395833333331 45.35572916666666V66.02604166666666H204.6442708333333L241.05260416666664 102.434375V183.97395833333331H183.97395833333331V241.05260416666664H102.434375L66.02604166666666 204.6442708333333V183.97395833333331H45.35572916666666L8.947395833333333 147.33385416666667V66.03229166666667H66.02604166666666V8.947395833333333Z" stroke-width="2"></path><path stroke="#000000" stroke-linecap="round" stroke-linejoin="round" d="M204.6442708333333 66.01927083333334L241.05260416666664 102.42135416666666V183.62604166666665L204.31562499999998 147.63020833333331L204.6442708333333 66.01927083333334Z" stroke-width="2"></path><path stroke="#000000" stroke-linecap="round" stroke-linejoin="round" d="M204.31562499999998 147.64322916666666L241.05260416666664 183.63229166666665H183.63229166666665L165.63802083333331 165.63802083333331L147.64322916666666 147.64322916666666H204.31562499999998Z" stroke-width="2"></path><path stroke="#000000" stroke-linecap="round" stroke-linejoin="round" d="M147.64322916666666 147.64322916666666L183.63229166666665 183.63229166666665V241.05260416666664L147.64322916666666 204.31562499999998V147.64322916666666Z" stroke-width="2"></path><path stroke="#000000" stroke-linecap="round" stroke-linejoin="round" d="M102.434375 241.04635416666667L66.03229166666667 204.63802083333334L147.64322916666666 204.30885416666666L183.63906249999997 241.04635416666667H102.434375Z" stroke-width="2"></path><path stroke="#000000" stroke-linecap="round" stroke-linejoin="round" d="M147.33385416666667 8.947395833333333H65.92916666666666V65.92916666666666H8.947395833333333V147.33385416666667H65.92916666666666V204.31562499999998H147.33385416666667V147.33385416666667H204.31562499999998V65.92916666666666H147.33385416666667V8.947395833333333Z" stroke-width="2"></path><path stroke="#000000" stroke-linecap="round" stroke-linejoin="round" d="M65.92916666666666 183.98072916666666H45.35572916666666L8.947395833333333 147.34010416666666H65.92916666666666V183.98072916666666Z" stroke-width="2"></path><path stroke="#000000" stroke-linecap="round" stroke-linejoin="round" d="M183.97395833333331 45.35572916666666V65.92916666666666H147.33385416666667V8.947395833333333L183.97395833333331 45.35572916666666Z" stroke-width="2"></path></svg>