<svg xmlns="http://www.w3.org/2000/svg" fill="none" viewBox="0 0 250 250" id="Globe-World--Streamline-Retro.svg" height="250" width="250"><desc>Globe World Streamline Element: https://streamlinehq.com</desc><path fill="#94e986" d="M10.416666666666666 119.98437499999999a95.38541666666666 95.38541666666666 0 1 0 190.77083333333331 0 95.38541666666666 95.38541666666666 0 1 0 -190.77083333333331 0" stroke-width="2"></path><path fill="#ffb9ec" d="M239.58854166666663 130.01458333333332c0 52.680208333333326 -42.705729166666664 95.3859375 -95.38645833333332 95.3859375L91.13541666666667 214.25208333333333c4.78125 0.7374999999999999 9.680208333333333 1.1203125 14.667708333333332 1.1203125 52.680208333333326 0 95.38645833333332 -42.705729166666664 95.38645833333332 -95.3859375 0 -43.645833333333336 -29.31458333333333 -80.44505208333332 -69.328125 -91.783125l39.711979166666666 10.410208333333333c39.340624999999996 11.764114583333333 68.01510416666666 48.23385416666666 68.01510416666666 91.40104166666666Z" stroke-width="2"></path><path stroke="#000000" d="M10.416666666666666 119.98437499999999a95.38541666666666 95.38541666666666 0 1 0 190.77083333333331 0 95.38541666666666 95.38541666666666 0 1 0 -190.77083333333331 0" stroke-width="2"></path><path stroke="#000000" d="M239.58854166666663 130.01458333333332c0 52.680208333333326 -42.705729166666664 95.3859375 -95.38645833333332 95.3859375L91.13541666666667 214.25208333333333c4.78125 0.7374999999999999 9.680208333333333 1.1203125 14.667708333333332 1.1203125 52.680208333333326 0 95.38645833333332 -42.705729166666664 95.38645833333332 -95.3859375 0 -43.645833333333336 -29.31458333333333 -80.44505208333332 -69.328125 -91.783125l39.711979166666666 10.410208333333333c39.340624999999996 11.764114583333333 68.01510416666666 48.23385416666666 68.01510416666666 91.40104166666666Z" stroke-width="2"></path><path stroke="#000000" d="M52.296875 120.47395833333333a53.5 95.38541666666666 0 1 0 107 0 53.5 95.38541666666666 0 1 0 -107 0" stroke-width="2"></path><path stroke="#000000" stroke-linejoin="round" d="M105.80468749999999 25.090520833333333V214.884375" stroke-width="2"></path><path stroke="#000000" stroke-linejoin="round" d="m200.69375 119.98489583333333 -189.79390625 0" stroke-width="2"></path><path stroke="#000000" stroke-linejoin="round" d="m187.97812499999998 70.82135416666667 -164.35765625 0" stroke-width="2"></path><path stroke="#000000" stroke-linejoin="round" d="M187.97812499999998 168.40625H23.620468749999997" stroke-width="2"></path></svg>